<svg xmlns="http://www.w3.org/2000/svg" width="64" height="64">
   <g fill="rgba(255,255,255,0.42)" fill-opacity=".1" fill-rule="evenodd">
      <path
         d="M0 7h1v2H0zM0 3h1v2H0zM0 11h1v2H0zM16 9h1v1h-1zM16 3h1v1h-1zM16 1h1v1h-1zM32 9h1v1h-1zM32 3h1v1h-1zM32 1h1v1h-1zM48 9h1v1h-1zM48 3h1v1h-1zM48 1h1v1h-1zM16 17h1v1h-1zM32 17h1v1h-1zM48 17h1v1h-1zM16 25h1v1h-1zM32 25h1v1h-1zM48 25h1v1h-1zM16 33h1v1h-1zM32 33h1v1h-1zM48 33h1v1h-1zM16 41h1v1h-1zM32 41h1v1h-1zM48 41h1v1h-1zM16 49h1v1h-1zM32 49h1v1h-1zM48 49h1v1h-1zM16 11h1v1h-1zM16 5h1v1h-1zM32 11h1v1h-1zM32 5h1v1h-1zM48 11h1v1h-1zM48 5h1v1h-1zM16 19h1v1h-1zM32 19h1v1h-1zM48 19h1v1h-1zM16 27h1v1h-1zM32 27h1v1h-1zM48 27h1v1h-1zM16 35h1v1h-1zM32 35h1v1h-1zM48 35h1v1h-1zM16 43h1v1h-1zM32 43h1v1h-1zM48 43h1v1h-1zM16 51h1v1h-1zM32 51h1v1h-1zM48 51h1v1h-1zM16 13h1v1h-1zM16 7h1v1h-1zM32 13h1v1h-1zM32 7h1v1h-1zM48 13h1v1h-1zM48 7h1v1h-1zM50 15h1v1h-1zM50 31h1v1h-1zM50 47h1v1h-1zM56 15h1v1h-1zM56 31h1v1h-1zM56 47h1v1h-1zM40 15h1v1h-1zM40 31h1v1h-1zM40 47h1v1h-1zM34 15h1v1h-1zM34 31h1v1h-1zM34 47h1v1h-1zM26 15h1v1h-1zM26 31h1v1h-1zM26 47h1v1h-1zM20 15h1v1h-1zM20 31h1v1h-1zM20 47h1v1h-1zM18 15h1v1h-1zM18 31h1v1h-1zM18 47h1v1h-1zM10 15h1v1h-1zM10 31h1v1h-1zM10 47h1v1h-1zM4 15h1v1H4zM4 31h1v1H4zM4 47h1v1H4zM2 15h1v1H2zM2 31h1v1H2zM2 47h1v1H2zM46 15h1v1h-1zM46 31h1v1h-1zM46 47h1v1h-1zM16 21h1v1h-1zM32 21h1v1h-1zM48 21h1v1h-1zM16 29h1v1h-1zM32 29h1v1h-1zM48 29h1v1h-1zM16 37h1v1h-1zM32 37h1v1h-1zM48 37h1v1h-1zM16 45h1v1h-1zM32 45h1v1h-1zM48 45h1v1h-1zM16 53h1v1h-1zM32 53h1v1h-1zM48 53h1v1h-1zM16 15h1v1h-1zM32 15h1v1h-1zM48 15h1v1h-1zM52 15h1v1h-1zM52 31h1v1h-1zM52 47h1v1h-1zM58 15h1v1h-1zM58 31h1v1h-1zM58 47h1v1h-1zM42 15h1v1h-1zM42 31h1v1h-1zM42 47h1v1h-1zM36 15h1v1h-1zM36 31h1v1h-1zM36 47h1v1h-1zM28 15h1v1h-1zM28 31h1v1h-1zM28 47h1v1h-1zM22 15h1v1h-1zM22 31h1v1h-1zM22 47h1v1h-1zM12 15h1v1h-1zM12 31h1v1h-1zM12 47h1v1h-1zM6 15h1v1H6zM6 31h1v1H6zM6 47h1v1H6zM54 15h1v1h-1zM54 31h1v1h-1zM54 47h1v1h-1zM60 15h1v1h-1zM60 31h1v1h-1zM60 47h1v1h-1zM62 15h1v1h-1zM62 31h1v1h-1zM62 47h1v1h-1zM44 15h1v1h-1zM44 31h1v1h-1zM44 47h1v1h-1zM38 15h1v1h-1zM38 31h1v1h-1zM38 47h1v1h-1zM30 15h1v1h-1zM30 31h1v1h-1zM30 47h1v1h-1zM24 15h1v1h-1zM24 31h1v1h-1zM24 47h1v1h-1zM14 15h1v1h-1zM14 31h1v1h-1zM14 47h1v1h-1zM8 15h1v1H8zM8 31h1v1H8zM8 47h1v1H8zM16 23h1v1h-1zM32 23h1v1h-1zM48 23h1v1h-1zM16 31h1v1h-1zM32 31h1v1h-1zM48 31h1v1h-1zM16 39h1v1h-1zM32 39h1v1h-1zM48 39h1v1h-1zM16 47h1v1h-1zM32 47h1v1h-1zM48 47h1v1h-1zM16 55h1v1h-1zM32 55h1v1h-1zM48 55h1v1h-1zM16 57h1v1h-1zM32 57h1v1h-1zM48 57h1v1h-1zM16 59h1v1h-1zM32 59h1v1h-1zM32 61h1v1h-1zM48 59h1v1h-1zM48 61h1v1h-1zM16 61h1v1h-1zM0 15h1v2H0zM0 19h1v2H0zM0 23h1v2H0zM0 27h1v2H0zM0 31h1v2H0zM0 51h1v2H0zM0 35h1v2H0zM0 55h1v2H0zM0 39h1v2H0zM0 59h1v2H0zM0 43h1v2H0zM0 47h1v2H0zM0 63h2v1H0zM4 63h2v1H4zM8 63h2v1H8zM12 63h2v1h-2zM16 63h2v1h-2zM20 63h2v1h-2zM24 63h2v1h-2zM28 63h2v1h-2zM32 63h2v1h-2zM36 63h2v1h-2zM40 63h2v1h-2zM44 63h2v1h-2zM48 63h2v1h-2zM52 63h2v1h-2zM56 63h2v1h-2zM60 63h2v1h-2z" />
   </g>
</svg>